HIERARCHY
ROOT Hips
{
	OFFSET 0.000000 0.000000 0.000000
	CHANNELS 6 Xposition Yposition Zposition Zrotation Yrotation Xrotation
	JOINT LHipJoint
	{
		OFFSET 0.000000 0.000000 0.000000
		CHANNELS 3 Zrotation Yrotation Xrotation
		JOINT LeftUpLeg
		{
			OFFSET 1.363060 -1.794630 0.839290
			CHANNELS 3 Zrotation Yrotation Xrotation
			JOINT LeftLeg
			{
				OFFSET 2.448110 -6.726130 0.000000
				CHANNELS 3 Zrotation Yrotation Xrotation
				JOINT LeftFoot
				{
					OFFSET 2.562200 -7.039590 0.000000
					CHANNELS 3 Zrotation Yrotation Xrotation
					JOINT LeftToeBase
					{
						OFFSET 0.157640 -0.433110 2.322550
						CHANNELS 3 Zrotation Yrotation Xrotation
						End Site
						{
							OFFSET 0.000000 0.000000 0.000000
						}
					}
				}
			}
		}
	}
	JOINT RHipJoint
	{
		OFFSET 0.000000 0.000000 0.000000
		CHANNELS 3 Zrotation Yrotation Xrotation
		JOINT RightUpLeg
		{
			OFFSET -1.305520 -1.794630 0.839290
			CHANNELS 3 Zrotation Yrotation Xrotation
			JOINT RightLeg
			{
				OFFSET -2.542530 -6.985550 0.000000
				CHANNELS 3 Zrotation Yrotation Xrotation
				JOINT RightFoot
				{
					OFFSET -2.568260 -7.056230 0.000000
					CHANNELS 3 Zrotation Yrotation Xrotation
					JOINT RightToeBase
					{
						OFFSET -0.164730 -0.452590 2.363150
						CHANNELS 3 Zrotation Yrotation Xrotation
						End Site
						{
							OFFSET 0.000000 0.000000 0.000000
						}
					}
				}
			}
		}
	}
	JOINT LowerBack
	{
		OFFSET 0.000000 0.000000 0.000000
		CHANNELS 3 Zrotation Yrotation Xrotation
		JOINT Spine
		{
			OFFSET 0.028270 2.035590 -0.193380
			CHANNELS 3 Zrotation Yrotation Xrotation
			JOINT Spine1
			{
				OFFSET 0.056720 2.048850 -0.042750
				CHANNELS 3 Zrotation Yrotation Xrotation
				JOINT Neck
				{
					OFFSET 0.000000 0.000000 0.000000
					CHANNELS 3 Zrotation Yrotation Xrotation
					JOINT Neck1
					{
						OFFSET -0.054170 1.746240 0.172020
						CHANNELS 3 Zrotation Yrotation Xrotation
						JOINT Head
						{
							OFFSET 0.104070 1.761360 -0.123970
							CHANNELS 3 Zrotation Yrotation Xrotation
							End Site
							{
								OFFSET 0.000000 0.000000 0.000000
							}
						}
					}
				}
				JOINT LeftShoulder
				{
					OFFSET 0.000000 0.000000 0.000000
					CHANNELS 3 Zrotation Yrotation Xrotation
					JOINT LeftArm
					{
						OFFSET 3.362410 1.200890 -0.311210
						CHANNELS 3 Zrotation Yrotation Xrotation
						JOINT LeftForeArm
						{
							OFFSET 4.983000 -0.000000 -0.000000
							CHANNELS 3 Zrotation Yrotation Xrotation
							JOINT LeftHand
							{
								OFFSET 3.483560 -0.000000 -0.000000
								CHANNELS 3 Zrotation Yrotation Xrotation
								JOINT LeftFingerBase
								{
									OFFSET 0.000000 0.000000 0.000000
									CHANNELS 3 Zrotation Yrotation Xrotation
									JOINT LeftHandIndex1
									{
										OFFSET 0.715260 -0.000000 -0.000000
										CHANNELS 3 Zrotation Yrotation Xrotation
										End Site
										{
											OFFSET 0.000000 0.000000 0.000000
										}
									}
								}
								JOINT LThumb
								{
									OFFSET 0.000000 0.000000 0.000000
									CHANNELS 3 Zrotation Yrotation Xrotation
									End Site
									{
										OFFSET 0.000000 0.000000 0.000000
									}
								}
							}
						}
					}
				}
				JOINT RightShoulder
				{
					OFFSET 0.000000 0.000000 0.000000
					CHANNELS 3 Zrotation Yrotation Xrotation
					JOINT RightArm
					{
						OFFSET -3.136600 1.374050 -0.404650
						CHANNELS 3 Zrotation Yrotation Xrotation
						JOINT RightForeArm
						{
							OFFSET -5.241900 -0.000000 -0.000000
							CHANNELS 3 Zrotation Yrotation Xrotation
							JOINT RightHand
							{
								OFFSET -3.444170 -0.000000 -0.000000
								CHANNELS 3 Zrotation Yrotation Xrotation
								JOINT RightFingerBase
								{
									OFFSET 0.000000 0.000000 0.000000
									CHANNELS 3 Zrotation Yrotation Xrotation
									JOINT RightHandIndex1
									{
										OFFSET -0.622530 -0.000000 -0.000000
										CHANNELS 3 Zrotation Yrotation Xrotation
										End Site
										{
											OFFSET 0.000000 0.000000 0.000000
										}
									}
								}
								JOINT RThumb
								{
									OFFSET 0.000000 0.000000 0.000000
									CHANNELS 3 Zrotation Yrotation Xrotation
									End Site
									{
										OFFSET 0.000000 0.000000 0.000000
									}
								}
							}
						}
					}
				}
			}
		}
	}
}
MOTION
Frames: 6
Frame Time: 0.008333
0.001165 0.007766 0.093744 -0.051803 -0.016763 0.087593 -0.050516 -0.022665 -0.032956 0.244953 -0.186079 0.040154 -0.304886 -0.317123 -1.157872 0.024259 -0.084228 -0.115905 0.014357 0.338733 0.931779 0.026969 -0.014177 0.038566 0.021412 -0.069207 0.395648 0.070159 0.134152 -0.396003 0.068080 -0.189817 0.049047 0.004786 0.067223 -0.185310 0.031488 0.025848 -0.060509 0.010572 0.032684 -0.022545 -0.010215 0.019093 0.020155 -0.036663 0.003011 -0.066085 0.045734 0.014232 0.029168 0.020979 0.010128 0.022371 -0.002198 0.007025 -0.000938 -0.041016 0.051734 -0.064144 -0.060948 0.087205 0.020469 -0.012662 0.002625 0.571337 0.231475 -0.000509 0.125432 0.000000 0.000000 0.000000 0.269840 0.055649 0.088147 -0.002755 0.010388 0.006059 -0.068306 0.164280 0.190000 -0.077085 0.097567 -0.035179 0.001922 0.005377 -0.076354 -0.158002 -0.049956 -0.042627 -0.000000 0.000000 0.000000 -0.107012 -0.034335 -0.094102
0.217102 0.051727 -0.448741 0.010378 0.756410 0.091663 -0.245500 0.088241 -0.045648 -0.498995 -1.124055 -0.430688 0.117790 -0.677262 -4.374500 -0.127019 0.422889 -1.647546 -0.283820 -0.237934 -1.523226 -0.773127 -0.293029 -0.132347 -1.415949 -0.984093 0.306461 -0.030975 -0.577020 -0.413770 0.106042 -0.502878 -1.256134 -0.029105 0.246118 -0.309119 -0.585740 0.017898 0.011305 -0.073434 0.017436 -0.134931 -0.055468 -0.018827 -0.405089 -0.178170 -0.053776 0.128013 0.185769 0.048714 0.123849 0.131895 0.105970 0.166109 0.009717 0.117933 0.014300 0.252099 0.433730 -0.271331 -0.125711 -0.116829 0.045386 -0.014446 -0.117944 0.961164 0.464539 -0.409704 0.471650 -0.013068 0.000000 0.000000 0.926618 1.211952 -0.378195 0.218035 0.259240 -0.009920 0.212250 0.358946 0.144176 0.170515 0.125516 0.153737 0.130940 0.010189 -0.237565 3.837414 1.007126 0.799584 0.031567 0.000000 0.000000 0.063138 -0.674440 0.982844
0.290867 -0.198417 -1.452046 -0.182581 0.676822 -0.208474 -0.625617 0.038038 -0.060400 -1.239340 -1.973963 0.040685 0.358561 -1.062168 -7.245047 -0.200407 0.299797 -3.007333 -0.492647 -0.388119 -3.862888 -1.348518 -0.514204 -0.363344 -3.715916 -1.960593 0.558634 -0.270914 -0.689226 -0.473093 0.162539 -1.344218 -3.584213 -0.156110 0.022125 -0.603743 -0.909413 0.014478 0.009962 -0.215257 -0.123966 -0.426804 -0.196871 -0.039281 -0.837852 -0.500207 -0.210593 -0.070870 0.093600 -0.119899 0.000781 0.024498 0.045989 0.034755 -0.249832 0.017492 -0.019435 -0.475446 0.340996 -1.660329 -0.387182 -0.544915 0.024513 -0.012940 -0.196814 0.787126 0.162972 -1.370642 0.505605 -0.084109 0.000000 0.000000 0.034901 0.636502 -2.273896 0.138937 0.061052 -0.105958 -0.744721 0.284580 0.022000 -0.242935 -0.387121 -0.316415 0.099961 -0.080959 -1.132862 2.397850 -0.222724 -2.386394 -0.051222 0.000000 0.000000 -4.497307 -3.740498 -3.423038
0.369130 -0.302432 -1.466581 -0.293525 0.620826 0.156463 -0.600170 0.026568 0.058640 -1.761151 -2.596505 0.568646 0.677561 -1.051034 -9.147644 -0.395716 -0.490611 -2.969381 -0.609330 -0.672932 -5.926187 -1.536368 -0.524475 -0.225719 -5.397741 -2.338446 1.187492 -0.461949 -0.750384 -1.307602 0.262913 -1.410447 -4.592347 -0.111016 -0.012242 0.594985 -0.854143 -0.028244 0.270843 -0.186230 -0.085268 -0.377419 -0.167237 0.036285 -0.871401 -0.584757 -0.076900 0.174173 0.146798 0.095766 0.386031 0.058159 0.081272 0.188817 -0.224321 0.095309 -0.003681 0.263500 0.689071 -1.727452 -0.307694 -0.696944 0.053888 0.031040 -0.151715 1.005379 0.370737 -1.273417 0.784343 -0.073933 0.000000 0.000000 0.783524 2.749399 -1.635289 0.275883 0.026181 -0.077581 -0.433414 0.718411 0.784002 -0.143427 0.048953 -0.357978 0.110961 -0.019340 -1.116287 4.084051 0.688490 -1.789731 -0.022564 0.000000 0.000000 -2.046527 -2.809093 -2.320553
0.284209 -0.489833 -2.201126 -0.362864 0.461408 0.340516 -0.753981 -0.127813 0.095588 -2.067556 -3.082753 0.771165 1.089959 -0.584257 -10.775226 -0.496649 -0.229880 -1.731237 -0.586402 -0.755297 -8.261618 -1.621836 -0.524314 -0.065656 -6.530896 -2.374589 2.507591 -0.190515 -0.516401 -2.208161 0.342133 -2.617267 -5.579129 -0.082005 0.199604 3.370335 -0.849805 -0.023877 0.706129 -0.228259 0.010886 -0.223473 0.051534 0.171688 -0.903492 -0.544912 0.145781 0.118092 0.206682 0.296953 0.639862 0.074819 0.177941 0.318125 -0.195575 0.187128 0.017927 0.824149 0.872780 -1.114035 -0.268184 -0.588392 0.190263 0.078198 -0.103542 1.281102 0.553135 -0.747498 1.227211 -0.049085 0.000000 0.000000 2.112820 4.957517 -1.118182 0.273497 -0.063326 -0.017200 0.587817 1.470877 1.561152 0.071253 0.338742 -0.875088 0.134982 0.041669 -1.143463 7.625916 1.305898 -0.500187 0.018156 0.000000 0.000000 0.244813 -2.479845 -1.705317
0.154190 -0.565281 -2.423413 -0.433245 0.087134 0.152130 -1.143192 -0.297166 0.169713 -2.553750 -3.827332 0.934878 1.428362 -0.589496 -13.883831 -0.691917 0.336693 -1.636398 -0.752557 -1.370527 -13.393913 -2.205656 -0.698297 -0.089340 -7.391318 -2.650386 3.554098 -0.224484 -1.093217 -3.499665 0.358741 -3.116861 -5.660301 -0.207747 0.135611 3.857367 -1.362644 -0.024373 0.925508 -0.295251 0.112633 -0.281593 0.223497 0.252711 -0.882821 -0.500196 0.287696 -0.211904 0.243257 0.249260 0.511384 -0.112401 0.104369 0.081032 -0.517060 0.002071 -0.036479 -0.560982 0.314656 -2.305717 -0.759671 -0.974898 0.240082 0.085163 -0.179828 0.898978 0.084650 -1.474227 1.324266 -0.126069 0.000000 0.000000 1.192177 4.066459 -3.215960 0.190346 -0.232928 -0.042705 0.436752 1.475860 1.152568 -0.295851 -0.081877 -1.345450 0.175036 0.013505 -1.825459 6.290648 -0.785818 -2.361555 -0.029966 0.000000 0.000000 -1.527724 -4.506902 -4.322678
